<svg xmlns="http://www.w3.org/2000/svg" width="150" height="38" viewBox="0 0 150 38" fill="none">
  <path d="M138.657 21.68L144.097 9.19995H149.777L137.097 37.56H131.577L135.977 27.72L127.217 9.19995H133.017L138.657 21.68Z" fill="white"/>
  <path d="M124.66 4.92C123.7 4.92 122.94 5.2 122.38 5.76C121.82 6.29333 121.54 7.06667 121.54 8.08V9.2H126.42V14.12H121.54V29.56H116.22V14.12H112.9V9.2H116.22V7.08C116.22 4.92 116.847 3.2 118.1 1.92C119.38 0.640001 121.127 0 123.34 0H126.42V4.92H124.66Z" fill="white"/>
  <path d="M109.398 29.56H104.078V9.2H109.398V29.56ZM109.518 5.8H103.878V1H109.518V5.8Z" fill="white"/>
  <path d="M98.4255 29.56H93.1055V0.76001H98.4255V29.56Z" fill="white"/>
  <path d="M78.6488 8.71997C80.3821 8.71997 82.0354 9.1733 83.6087 10.08C85.1821 10.9866 86.4488 12.2533 87.4088 13.88C88.3688 15.5066 88.8487 17.3466 88.8487 19.4C88.8487 21.4266 88.3688 23.2533 87.4088 24.88C86.4488 26.5066 85.1821 27.7733 83.6087 28.68C82.0354 29.5866 80.3821 30.04 78.6488 30.04C77.2621 30.04 76.0488 29.8533 75.0088 29.48C73.9954 29.08 73.0887 28.48 72.2887 27.68V37.56H66.9688V9.19997H72.0888V11.28C72.9154 10.4 73.8621 9.75997 74.9287 9.35997C75.9954 8.9333 77.2354 8.71997 78.6488 8.71997ZM77.8087 25.12C79.4354 25.12 80.7954 24.5733 81.8887 23.48C82.9821 22.3866 83.5287 21.0266 83.5287 19.4C83.5287 17.7466 82.9821 16.3733 81.8887 15.28C80.7954 14.1866 79.4354 13.64 77.8087 13.64C76.1821 13.64 74.8221 14.1866 73.7288 15.28C72.6354 16.3733 72.0888 17.7466 72.0888 19.4C72.0888 21.0266 72.6354 22.3866 73.7288 23.48C74.8221 24.5733 76.1821 25.12 77.8087 25.12Z" fill="white"/>
  <path d="M54.1244 8.71997C55.6177 8.71997 56.9377 9.07997 58.0844 9.79997C59.2577 10.52 60.151 11.5333 60.7644 12.84C61.4044 14.1466 61.7244 15.6266 61.7244 17.28V29.56H56.4044V18.12C56.4044 16.7866 56.071 15.7066 55.4044 14.88C54.7377 14.0533 53.8444 13.64 52.7244 13.64C51.631 13.64 50.6977 14.0666 49.9244 14.92C49.151 15.7466 48.7644 16.8133 48.7644 18.12V29.56H43.4444V18.12C43.4444 16.7866 43.111 15.7066 42.4444 14.88C41.7777 14.0533 40.8844 13.64 39.7644 13.64C38.671 13.64 37.7377 14.0666 36.9644 14.92C36.191 15.7466 35.8044 16.8133 35.8044 18.12V29.56H30.4844V9.19997H35.4044V11.52C36.151 10.5866 37.0177 9.8933 38.0044 9.43997C38.991 8.95997 40.0444 8.71997 41.1644 8.71997C42.471 8.71997 43.6844 9.0533 44.8044 9.71997C45.9244 10.36 46.791 11.24 47.4044 12.36C49.0577 9.9333 51.2977 8.71997 54.1244 8.71997Z" fill="white"/>
  <path d="M27.36 29.5601H21.36L19.24 23.7201H8.04L5.92 29.5601H0L10.92 1.56006H16.44L27.36 29.5601ZM17.52 18.5201L13.68 8.16006L9.84 18.5201H17.52Z" fill="white"/>
</svg>