<svg xmlns="http://www.w3.org/2000/svg" width="24" height="24" viewBox="0 0 24 24" fill="none">
  <path d="M19.3193 14.2692H21.2036C21.526 14.2692 21.7874 14.0078 21.7874 13.6854V12.1583C21.7874 11.8359 22.0488 11.5746 22.3712 11.5746C22.6936 11.5746 22.955 11.3132 22.955 10.9908V10.1426" stroke="#4955A1" stroke-width="0.0703125" stroke-miterlimit="10" stroke-linecap="round" stroke-linejoin="round"/>
  <path d="M20.5902 14.2699C20.5902 16.133 19.6648 17.8308 18.1571 19.0967L17.2638 22.865C17.1626 23.2944 16.7801 23.5979 16.3383 23.5979H15.1465C14.7048 23.5979 14.3223 23.2944 14.2211 22.865L13.8089 21.1302C13.0661 21.2832 12.2888 21.3621 11.4868 21.3621C10.6848 21.3621 9.90499 21.2832 9.16465 21.1302L8.75252 22.865C8.65132 23.2944 8.26887 23.5979 7.82712 23.5979H6.63523C6.19348 23.5979 5.81102 23.2944 5.70982 22.865L4.81652 19.0967C3.97751 18.391 3.31863 17.5544 2.90159 16.629H2.23287C1.57648 16.629 1.0459 16.096 1.0459 15.442V13.0977C1.0459 12.4413 1.57648 11.9083 2.23287 11.9083H2.90163C3.44946 10.6991 4.40445 9.64047 5.64082 8.83351V6.25478C5.64082 5.64526 6.25774 5.2134 6.82535 5.4429C7.72854 5.80567 8.42445 6.57067 8.69585 7.51581C9.57438 7.29367 10.5146 7.17522 11.4868 7.17522C16.5161 7.17517 20.5902 10.3536 20.5902 14.2699Z" fill="black"/>
  <path d="M16.5351 11.3955C16.4314 11.3955 16.3268 11.3629 16.2377 11.2954C14.9911 10.352 13.2591 9.81082 11.4856 9.81082C10.8024 9.81082 10.1248 9.88953 9.471 10.0448C9.20569 10.1075 8.93963 9.94386 8.87672 9.67878C8.81382 9.41356 8.97769 9.1475 9.243 9.0845C9.97125 8.91148 10.7258 8.82373 11.4856 8.82373C13.4697 8.82373 15.4188 9.43775 16.8334 10.5084C17.0508 10.6729 17.0937 10.9824 16.9291 11.1998C16.832 11.328 16.6845 11.3955 16.5351 11.3955Z" fill="black"/>
  <path d="M18.0142 4.39563C18.0142 6.46495 16.338 8.14107 14.2699 8.14107C12.2017 8.14107 10.5244 6.46486 10.5244 4.39563C10.5244 2.32763 12.2017 0.651367 14.2699 0.651367C16.338 0.651367 18.0142 2.32754 18.0142 4.39563Z" fill="#CAFF30" stroke="black" stroke-width="0.5"/>
  <path d="M16.9445 10.3611C14.9774 8.87222 12.0124 8.23618 9.19986 8.9048C8.83574 8.99119 8.60966 9.35775 8.69619 9.72188C8.78221 10.0853 9.14638 10.3115 9.51336 10.2252C11.9616 9.64355 14.5003 10.2134 16.1256 11.4434C16.4184 11.6648 16.8448 11.6173 17.076 11.3118C17.3039 11.011 17.2422 10.5863 16.9445 10.3611Z" fill="white"/>
  <path d="M6.97933 10.7036C6.49952 10.7036 6.10938 11.0946 6.10938 11.5752C6.10938 12.0548 6.49952 12.445 6.97933 12.445C7.45984 12.445 7.85073 12.0549 7.85073 11.5752C7.85073 11.0946 7.45989 10.7036 6.97933 10.7036Z" fill="white"/>
  <path d="M12.9941 2.70068H15.5464M12.9941 3.79629H15.5464M14.8021 6.64506L12.9941 4.8919H13.6322C15.0501 4.8919 15.0501 2.70068 13.6322 2.70068" stroke="black" stroke-width="0.5" stroke-linecap="round" stroke-linejoin="round"/>
</svg>