<svg xmlns="http://www.w3.org/2000/svg" width="140" height="28" viewBox="0 0 140 28" fill="none">
  <path d="M131.418 27.0558C129.772 27.0558 128.315 26.7771 127.048 26.2198C125.782 25.6624 124.794 24.8898 124.084 23.9018C123.375 22.9138 122.982 21.7991 122.906 20.5578H127.922C127.998 21.1911 128.353 21.7358 128.986 22.1918C129.62 22.6478 130.43 22.8758 131.418 22.8758C132.33 22.8758 133.04 22.7364 133.546 22.4578C134.078 22.1538 134.344 21.6978 134.344 21.0898C134.344 20.4818 134.04 20.0384 133.432 19.7598C132.824 19.4558 131.862 19.1518 130.544 18.8478C129.075 18.4931 127.859 18.1258 126.896 17.7458C125.959 17.3658 125.148 16.7578 124.464 15.9218C123.78 15.0858 123.438 13.9458 123.438 12.5018C123.438 11.4378 123.768 10.4751 124.426 9.61376C125.11 8.72709 126.035 8.04309 127.2 7.56176C128.366 7.05509 129.683 6.80176 131.152 6.80176C132.52 6.80176 133.787 7.08042 134.952 7.63776C136.118 8.16976 137.055 8.91709 137.764 9.87976C138.499 10.8171 138.892 11.8811 138.942 13.0718H134.002C133.952 12.4638 133.648 11.9698 133.09 11.5898C132.558 11.1844 131.849 10.9818 130.962 10.9818C130.202 10.9818 129.594 11.1084 129.138 11.3618C128.708 11.6151 128.492 11.9698 128.492 12.4258C128.492 13.0338 128.796 13.4898 129.404 13.7938C130.038 14.0978 131.038 14.4018 132.406 14.7058C133.85 15.0604 135.028 15.4278 135.94 15.8078C136.878 16.1624 137.688 16.7451 138.372 17.5558C139.056 18.3411 139.398 19.4051 139.398 20.7478C139.398 22.7238 138.664 24.2691 137.194 25.3838C135.725 26.4984 133.8 27.0558 131.418 27.0558Z" fill="white"/>
  <path d="M109.851 27.0558C108.001 27.0558 106.393 26.6758 105.025 25.9158C103.682 25.1558 102.643 24.0918 101.909 22.7238C101.174 21.3305 100.807 19.7345 100.807 17.9358V7.25781H105.861V17.9358C105.861 19.2785 106.215 20.3551 106.925 21.1658C107.659 21.9765 108.635 22.3818 109.851 22.3818C111.041 22.3818 112.004 21.9765 112.739 21.1658C113.473 20.3551 113.841 19.2785 113.841 17.9358V7.25781H118.895V17.9358C118.895 19.7345 118.527 21.3305 117.793 22.7238C117.058 24.0918 116.007 25.1558 114.639 25.9158C113.296 26.6758 111.7 27.0558 109.851 27.0558Z" fill="white"/>
  <path d="M86.6648 27.0558C84.8154 27.0558 83.0801 26.6378 81.4588 25.8018C79.8628 24.9404 78.5834 23.7498 77.6208 22.2298C76.6581 20.6844 76.1768 18.9238 76.1768 16.9478C76.1768 14.9718 76.6581 13.2111 77.6208 11.6658C78.5834 10.1204 79.8628 8.92976 81.4588 8.09376C83.0801 7.23242 84.8154 6.80176 86.6648 6.80176C88.5141 6.80176 90.2368 7.23242 91.8328 8.09376C93.4541 8.92976 94.7461 10.1204 95.7088 11.6658C96.6714 13.2111 97.1528 14.9718 97.1528 16.9478C97.1528 18.9238 96.6714 20.6844 95.7088 22.2298C94.7461 23.7498 93.4541 24.9404 91.8328 25.8018C90.2368 26.6378 88.5141 27.0558 86.6648 27.0558ZM86.6648 22.3818C88.2101 22.3818 89.5021 21.8624 90.5408 20.8238C91.5794 19.7851 92.0988 18.4931 92.0988 16.9478C92.0988 15.3771 91.5794 14.0724 90.5408 13.0338C89.5021 11.9951 88.2101 11.4758 86.6648 11.4758C85.1194 11.4758 83.8274 11.9951 82.7888 13.0338C81.7501 14.0724 81.2308 15.3771 81.2308 16.9478C81.2308 18.4931 81.7501 19.7851 82.7888 20.8238C83.8274 21.8624 85.1194 22.3818 86.6648 22.3818Z" fill="white"/>
  <path d="M65.3037 6.80176C66.7224 6.80176 67.9764 7.14376 69.0657 7.82776C70.1804 8.51176 71.029 9.47442 71.6117 10.7158C72.2197 11.9571 72.5237 13.3631 72.5237 14.9338V26.5998H67.4697V15.7318C67.4697 14.4651 67.153 13.4391 66.5197 12.6538C65.8864 11.8684 65.0377 11.4758 63.9737 11.4758C62.935 11.4758 62.0484 11.8811 61.3137 12.6918C60.579 13.4771 60.2117 14.4904 60.2117 15.7318V26.5998H55.1577V15.7318C55.1577 14.4651 54.841 13.4391 54.2077 12.6538C53.5744 11.8684 52.7257 11.4758 51.6617 11.4758C50.623 11.4758 49.7364 11.8811 49.0017 12.6918C48.267 13.4771 47.8997 14.4904 47.8997 15.7318V26.5998H42.8457V7.25776H47.5197V9.46176C48.229 8.57509 49.0524 7.91642 49.9897 7.48576C50.927 7.02976 51.9277 6.80176 52.9917 6.80176C54.233 6.80176 55.3857 7.11842 56.4497 7.75176C57.5137 8.35976 58.337 9.19576 58.9197 10.2598C60.4904 7.95442 62.6184 6.80176 65.3037 6.80176Z" fill="white"/>
  <path d="M32.798 7.25776H37.662V26.5998H32.798V24.6238C32.0126 25.4598 31.1133 26.0804 30.1 26.4858C29.0866 26.8658 27.9086 27.0558 26.566 27.0558C24.9193 27.0558 23.3486 26.6251 21.854 25.7638C20.3593 24.9024 19.156 23.6991 18.244 22.1538C17.332 20.6084 16.876 18.8731 16.876 16.9478C16.876 14.9971 17.332 13.2491 18.244 11.7038C19.156 10.1584 20.3593 8.95509 21.854 8.09376C23.3486 7.23242 24.9193 6.80176 26.566 6.80176C27.9086 6.80176 29.0866 7.00442 30.1 7.40976C31.1133 7.78976 32.0126 8.39776 32.798 9.23376V7.25776ZM27.364 22.3818C28.9093 22.3818 30.2013 21.8624 31.24 20.8238C32.2786 19.7851 32.798 18.4931 32.798 16.9478C32.798 15.3771 32.2786 14.0724 31.24 13.0338C30.2013 11.9951 28.9093 11.4758 27.364 11.4758C25.8186 11.4758 24.5266 11.9951 23.488 13.0338C22.4493 14.0724 21.93 15.3771 21.93 16.9478C21.93 18.4931 22.4493 19.7851 23.488 20.8238C24.5266 21.8624 25.8186 22.3818 27.364 22.3818Z" fill="white"/>
  <path d="M14.668 0V4.94H5.32V11.21H14.288V16.15H5.32V26.6H0V0H14.668Z" fill="white"/>
</svg>