<svg xmlns="http://www.w3.org/2000/svg" width="22" height="23" viewBox="0 0 22 23" fill="none">
  <path d="M21.5792 10.9181L18.4229 10.0141C17.0015 9.61256 15.7068 8.85215 14.6626 7.80566C13.6184 6.75917 12.8596 5.46164 12.4589 4.03721L11.5569 0.874115C11.5116 0.763449 11.4344 0.668795 11.3352 0.602181C11.2361 0.535567 11.1194 0.5 11 0.5C10.8806 0.5 10.7639 0.535567 10.6648 0.602181C10.5656 0.668795 10.4884 0.763449 10.4431 0.874115L9.54112 4.03721C9.14041 5.46164 8.38163 6.75917 7.33741 7.80566C6.29319 8.85215 4.99846 9.61256 3.57711 10.0141L0.420845 10.9181C0.299655 10.9525 0.192993 11.0257 0.117043 11.1264C0.0410925 11.2271 0 11.3499 0 11.4762C0 11.6024 0.0410925 11.7252 0.117043 11.826C0.192993 11.9267 0.299655 11.9998 0.420845 12.0343L3.57711 12.9382C4.99846 13.3398 6.29319 14.1002 7.33741 15.1467C8.38163 16.1932 9.14041 17.4907 9.54112 18.9151L10.4431 22.0782C10.4775 22.1997 10.5505 22.3066 10.651 22.3827C10.7515 22.4588 10.874 22.5 11 22.5C11.126 22.5 11.2485 22.4588 11.349 22.3827C11.4495 22.3066 11.5225 22.1997 11.5569 22.0782L12.4589 18.9151C12.8596 17.4907 13.6184 16.1932 14.6626 15.1467C15.7068 14.1002 17.0015 13.3398 18.4229 12.9382L21.5792 12.0343C21.7003 11.9998 21.807 11.9267 21.883 11.826C21.9589 11.7252 22 11.6024 22 11.4762C22 11.3499 21.9589 11.2271 21.883 11.1264C21.807 11.0257 21.7003 10.9525 21.5792 10.9181Z" fill="#6531FF"/>
</svg>