<svg xmlns="http://www.w3.org/2000/svg" width="16" height="17" viewBox="0 0 16 17" fill="none">
  <path d="M12.6028 1.5H8.76125C8.64183 1.49991 8.52724 1.5471 8.4425 1.63125L0.762502 9.30938C0.59438 9.47832 0.5 9.70697 0.5 9.94531C0.5 10.1837 0.59438 10.4123 0.762502 10.5813L4.41875 14.2375C4.58775 14.4056 4.81645 14.5 5.05485 14.5C5.29324 14.5 5.52194 14.4056 5.69094 14.2375L13.3688 6.5625C13.4529 6.47777 13.5001 6.36317 13.5 6.24375V2.4C13.5006 2.28189 13.4778 2.16483 13.4329 2.05556C13.3881 1.94629 13.3221 1.84697 13.2387 1.76331C13.1553 1.67966 13.0562 1.61333 12.947 1.56814C12.8379 1.52295 12.7209 1.49979 12.6028 1.5Z" fill="#C9B6FF" stroke="#1D252D" stroke-linecap="round" stroke-linejoin="round"/>
  <path d="M11 5C10.8022 5 10.6089 4.94135 10.4444 4.83147C10.28 4.72159 10.1518 4.56541 10.0761 4.38268C10.0004 4.19996 9.98063 3.99889 10.0192 3.80491C10.0578 3.61093 10.153 3.43275 10.2929 3.29289C10.4327 3.15304 10.6109 3.0578 10.8049 3.01922C10.9989 2.98063 11.2 3.00043 11.3827 3.07612C11.5654 3.15181 11.7216 3.27998 11.8315 3.44443C11.9414 3.60888 12 3.80222 12 4C12 4.26522 11.8946 4.51957 11.7071 4.70711C11.5196 4.89464 11.2652 5 11 5Z" fill="#1D252D"/>
  <path d="M7.1875 15.5L15.375 7.3125C15.4157 7.27145 15.4478 7.22263 15.4692 7.16895C15.4907 7.11526 15.5012 7.05781 15.5 7V3" stroke="#1D252D" stroke-linecap="round" stroke-linejoin="round"/>
</svg>