<svg width="20" height="20" viewBox="0 0 20 20" fill="none" xmlns="http://www.w3.org/2000/svg">
<g id="Group 1597880860">
<path id="sparkle" d="M19.585 9.47297L16.7204 8.65437C15.4304 8.29068 14.2553 7.60203 13.3076 6.6543C12.3599 5.70657 11.6712 4.53149 11.3075 3.24149L10.4889 0.376895C10.4478 0.276672 10.3777 0.190951 10.2877 0.130624C10.1977 0.0702961 10.0918 0.0380859 9.98348 0.0380859C9.87514 0.0380859 9.76923 0.0702961 9.67923 0.130624C9.58923 0.190951 9.5192 0.276672 9.47803 0.376895L8.65942 3.24149C8.29574 4.53149 7.60708 5.70657 6.65936 6.6543C5.71163 7.60203 4.53655 8.29068 3.24655 8.65437L0.381954 9.47297C0.271964 9.50419 0.175158 9.57044 0.106227 9.66166C0.0372951 9.75288 0 9.86409 0 9.97843C0 10.0928 0.0372951 10.204 0.106227 10.2952C0.175158 10.3864 0.271964 10.4527 0.381954 10.4839L3.24655 11.3025C4.53655 11.6662 5.71163 12.3548 6.65936 13.3026C7.60708 14.2503 8.29574 15.4254 8.65942 16.7154L9.47803 19.58C9.50925 19.6899 9.57549 19.7868 9.66671 19.8557C9.75793 19.9246 9.86915 19.9619 9.98348 19.9619C10.0978 19.9619 10.209 19.9246 10.3003 19.8557C10.3915 19.7868 10.4577 19.6899 10.4889 19.58L11.3075 16.7154C11.6712 15.4254 12.3599 14.2503 13.3076 13.3026C14.2553 12.3548 15.4304 11.6662 16.7204 11.3025L19.585 10.4839C19.695 10.4527 19.7918 10.3864 19.8607 10.2952C19.9297 10.204 19.967 10.0928 19.967 9.97843C19.967 9.86409 19.9297 9.75288 19.8607 9.66166C19.7918 9.57044 19.695 9.50419 19.585 9.47297Z" fill="white"/>
</g>
</svg>
