<svg xmlns="http://www.w3.org/2000/svg" width="24" height="24" viewBox="0 0 24 24" fill="none">
  <path fill-rule="evenodd" clip-rule="evenodd" d="M13.015 14.554L11.901 16.93C11.8635 17.0102 11.8537 17.1006 11.8731 17.1869C11.8925 17.2733 11.94 17.3508 12.0081 17.4073C12.0763 17.4637 12.1613 17.496 12.2497 17.4991C12.3382 17.5021 12.4251 17.4757 12.497 17.424L17.297 13.955C17.3825 13.8931 17.4462 13.8057 17.479 13.7054C17.5118 13.6051 17.512 13.4969 17.4796 13.3965C17.4472 13.296 17.3838 13.2084 17.2986 13.1461C17.2133 13.0839 17.1106 13.0503 17.005 13.05H13.72L13.718 13.054H7V14.554H13.015ZM11.21 9.446L12.324 7.07C12.3618 6.98968 12.3718 6.89906 12.3525 6.81242C12.3331 6.72578 12.2855 6.64804 12.2171 6.59144C12.1487 6.53484 12.0634 6.50261 11.9747 6.49981C11.886 6.49702 11.7988 6.52382 11.727 6.576L6.927 10.045C6.84143 10.107 6.77768 10.1944 6.7449 10.2948C6.71212 10.3953 6.71198 10.5035 6.74452 10.604C6.77706 10.7045 6.8406 10.7921 6.92602 10.8543C7.01144 10.9164 7.11436 10.95 7.22 10.95H10.505L10.506 10.946H17.22V9.446H11.21ZM12 22C6.477 22 2 17.523 2 12C2 6.477 6.477 2 12 2C17.523 2 22 6.477 22 12C22 17.523 17.523 22 12 22Z" fill="white"/>
  <path fill-rule="evenodd" clip-rule="evenodd" d="M10.9999 20.0002C16.5227 20.0002 20.9999 15.523 20.9999 10.0002C20.9999 8.79157 20.7855 7.63304 20.3926 6.56055C21.4095 8.1262 22.0001 9.99422 22.0001 12.0002C22.0001 17.5231 17.523 22.0002 12.0001 22.0002C7.68591 22.0002 4.00977 19.2682 2.60742 15.4398C4.39019 18.1847 7.48303 20.0002 10.9999 20.0002Z" fill="#CAFF30"/>
</svg>